<svg xmlns="http://www.w3.org/2000/svg" xmlns:xlink="http://www.w3.org/1999/xlink" width="500" zoomAndPan="magnify" viewBox="0 0 375 374.999991" height="500" preserveAspectRatio="xMidYMid meet" version="1.0"><defs><clipPath id="d666ad4f16"><path d="M 15 15 L 360 15 L 360 360 L 15 360 Z M 15 15 " clip-rule="nonzero"/></clipPath><clipPath id="8c32097b3b"><path d="M 204.777344 24.527344 L 206.621094 27.140625 C 216.625 41.34375 235.355469 46.363281 251.121094 39.066406 L 254.023438 37.722656 C 260.261719 34.835938 267.515625 35.160156 273.46875 38.597656 C 279.421875 42.035156 283.332031 48.152344 283.949219 55 L 284.238281 58.183594 C 285.800781 75.488281 299.511719 89.199219 316.816406 90.761719 L 320 91.050781 C 326.847656 91.667969 332.964844 95.578125 336.402344 101.53125 C 339.839844 107.484375 340.164062 114.738281 337.277344 120.976562 L 335.933594 123.878906 C 328.636719 139.644531 333.65625 158.375 347.859375 168.378906 L 350.472656 170.222656 C 356.09375 174.179688 359.4375 180.625 359.4375 187.5 C 359.4375 194.375 356.09375 200.816406 350.472656 204.777344 L 347.859375 206.621094 C 333.65625 216.625 328.636719 235.355469 335.933594 251.121094 L 337.277344 254.023438 C 340.164062 260.261719 339.839844 267.515625 336.402344 273.46875 C 332.964844 279.421875 326.847656 283.332031 320 283.949219 L 316.816406 284.238281 C 299.511719 285.800781 285.800781 299.511719 284.238281 316.816406 L 283.949219 320 C 283.332031 326.847656 279.421875 332.964844 273.46875 336.402344 C 267.515625 339.839844 260.261719 340.164062 254.023438 337.277344 L 251.121094 335.933594 C 235.355469 328.636719 216.625 333.65625 206.621094 347.859375 L 204.777344 350.472656 C 200.816406 356.09375 194.375 359.4375 187.5 359.4375 C 180.625 359.4375 174.179688 356.09375 170.222656 350.472656 L 168.378906 347.859375 C 158.375 333.65625 139.644531 328.636719 123.878906 335.933594 L 120.976562 337.277344 C 114.738281 340.164062 107.484375 339.839844 101.53125 336.402344 C 95.578125 332.964844 91.667969 326.847656 91.050781 320 L 90.761719 316.816406 C 89.199219 299.511719 75.488281 285.800781 58.183594 284.238281 L 55 283.949219 C 48.152344 283.332031 42.035156 279.421875 38.597656 273.46875 C 35.160156 267.515625 34.835938 260.261719 37.722656 254.023438 L 39.066406 251.121094 C 46.363281 235.355469 41.34375 216.625 27.140625 206.621094 L 24.527344 204.777344 C 18.90625 200.820312 15.5625 194.375 15.5625 187.5 C 15.5625 180.625 18.90625 174.179688 24.527344 170.222656 L 27.140625 168.378906 C 41.34375 158.375 46.363281 139.644531 39.066406 123.878906 L 37.722656 120.976562 C 34.835938 114.738281 35.160156 107.484375 38.597656 101.53125 C 42.035156 95.578125 48.152344 91.667969 55 91.050781 L 58.183594 90.761719 C 75.488281 89.199219 89.199219 75.488281 90.761719 58.183594 L 91.050781 55 C 91.667969 48.152344 95.578125 42.035156 101.53125 38.597656 C 107.484375 35.160156 114.738281 34.835938 120.976562 37.722656 L 123.878906 39.066406 C 139.644531 46.363281 158.375 41.34375 168.378906 27.140625 L 170.222656 24.527344 C 174.179688 18.90625 180.625 15.5625 187.5 15.5625 C 194.375 15.5625 200.820312 18.90625 204.777344 24.527344 Z M 204.777344 24.527344 " clip-rule="nonzero"/></clipPath><clipPath id="5b8351edda"><path d="M 86 156 L 187 156 L 187 254 L 86 254 Z M 86 156 " clip-rule="nonzero"/></clipPath><clipPath id="8edcd9f3a5"><path d="M 79.148438 174.894531 L 103.082031 149.640625 L 194.132812 235.933594 L 170.199219 261.1875 Z M 79.148438 174.894531 " clip-rule="nonzero"/></clipPath><clipPath id="9212ea6afa"><path d="M 91.015625 162.375 L 91.21875 162.160156 C 94.363281 158.839844 98.703125 156.90625 103.273438 156.78125 C 107.847656 156.660156 112.28125 158.359375 115.601562 161.507812 L 181.515625 223.976562 C 184.835938 227.121094 186.773438 231.460938 186.894531 236.03125 C 187.015625 240.605469 185.316406 245.042969 182.171875 248.363281 L 181.96875 248.574219 C 178.820312 251.894531 174.484375 253.828125 169.910156 253.953125 C 165.339844 254.074219 160.902344 252.375 157.582031 249.230469 L 91.667969 186.761719 C 88.347656 183.613281 86.414062 179.277344 86.292969 174.703125 C 86.167969 170.128906 87.867188 165.695312 91.015625 162.375 Z M 91.015625 162.375 " clip-rule="nonzero"/></clipPath><clipPath id="c3445858bd"><path d="M 158 123 L 295 123 L 295 260 L 158 260 Z M 158 123 " clip-rule="nonzero"/></clipPath><clipPath id="199f1b1e50"><path d="M 176.027344 267 L 151.097656 242.070312 L 276.71875 116.449219 L 301.648438 141.378906 Z M 176.027344 267 " clip-rule="nonzero"/></clipPath><clipPath id="b3f22854b5"><path d="M 163.832031 254.800781 L 163.296875 254.269531 C 160.0625 251.035156 158.242188 246.644531 158.242188 242.070312 C 158.242188 237.496094 160.0625 233.109375 163.296875 229.875 L 264.425781 128.742188 C 267.660156 125.507812 272.046875 123.691406 276.625 123.691406 C 281.199219 123.691406 285.585938 125.507812 288.820312 128.742188 L 289.355469 129.277344 C 292.589844 132.511719 294.40625 136.898438 294.40625 141.476562 C 294.40625 146.050781 292.589844 150.4375 289.355469 153.671875 L 188.226562 254.800781 C 184.992188 258.039062 180.601562 259.855469 176.027344 259.855469 C 171.453125 259.855469 167.066406 258.039062 163.832031 254.800781 Z M 163.832031 254.800781 " clip-rule="nonzero"/></clipPath></defs><g clip-path="url(#d666ad4f16)"><g clip-path="url(#8c32097b3b)"><rect x="-37.5" width="450" fill="#0cc0df" y="-37.499999" height="449.999989" fill-opacity="1"/></g></g><g clip-path="url(#5b8351edda)"><g clip-path="url(#8edcd9f3a5)"><g clip-path="url(#9212ea6afa)"><path fill="#ffffff" d="M 79.148438 174.894531 L 103.082031 149.640625 L 194.035156 235.839844 L 170.101562 261.09375 Z M 79.148438 174.894531 " fill-opacity="1" fill-rule="nonzero"/></g></g></g><g clip-path="url(#c3445858bd)"><g clip-path="url(#199f1b1e50)"><g clip-path="url(#b3f22854b5)"><path fill="#ffffff" d="M 176.027344 267 L 151.097656 242.070312 L 276.621094 116.546875 L 301.550781 141.476562 Z M 176.027344 267 " fill-opacity="1" fill-rule="nonzero"/></g></g></g></svg>